<svg width="47" height="47" viewBox="0 0 47 47" fill="none" xmlns="http://www.w3.org/2000/svg">
<mask id="mask0_14_11" style="mask-type:alpha" maskUnits="userSpaceOnUse" x="0" y="0" width="47" height="47">
<rect width="47" height="47" fill="white"/>
</mask>
<g mask="url(#mask0_14_11)">
<path d="M7.93109 21.5416H13.5123C13.3165 20.3013 12.9412 19.1427 12.3863 18.0656C11.8314 16.9885 11.1297 16.0257 10.2811 15.177C9.69359 16.1236 9.19617 17.1269 8.78884 18.187C8.3802 19.2484 8.09428 20.3666 7.93109 21.5416ZM33.4873 21.5416H39.0686C38.9054 20.3666 38.6201 19.2484 38.2128 18.187C37.8042 17.1269 37.3061 16.1236 36.7186 15.177C35.87 16.0257 35.1682 16.9885 34.6134 18.0656C34.0585 19.1427 33.6832 20.3013 33.4873 21.5416ZM10.2811 31.8229C11.1297 30.9743 11.8314 30.0114 12.3863 28.9343C12.9412 27.8573 13.3165 26.6986 13.5123 25.4583H7.93109C8.09428 26.6333 8.3802 27.7508 8.78884 28.811C9.19617 29.8724 9.69359 30.8763 10.2811 31.8229ZM36.7186 31.8229C37.3061 30.8763 37.8042 29.8724 38.2128 28.811C38.6201 27.7508 38.9054 26.6333 39.0686 25.4583H33.4873C33.6832 26.6986 34.0585 27.8573 34.6134 28.9343C35.1682 30.0114 35.87 30.9743 36.7186 31.8229ZM17.5269 21.5416H21.5415V7.93121C19.8116 8.19232 18.2045 8.67342 16.7201 9.3745C15.2344 10.0769 13.904 10.9993 12.729 12.1416C14.0019 13.3819 15.0549 14.7932 15.8878 16.3755C16.7194 17.9592 17.2658 19.6812 17.5269 21.5416ZM25.4582 21.5416H29.4728C29.7339 19.6812 30.2809 17.9592 31.1138 16.3755C31.9455 14.7932 32.9978 13.3819 34.2707 12.1416C33.0957 10.9993 31.766 10.0769 30.2815 9.3745C28.7958 8.67342 27.188 8.19232 25.4582 7.93121V21.5416ZM21.5415 39.0687V25.4583H17.5269C17.2658 27.3187 16.7194 29.0401 15.8878 30.6224C15.0549 32.2061 14.0019 33.618 12.729 34.8583C13.904 36.0007 15.2344 36.9224 16.7201 37.6235C18.2045 38.3258 19.8116 38.8076 21.5415 39.0687ZM25.4582 39.0687C27.188 38.8076 28.7958 38.3258 30.2815 37.6235C31.766 36.9224 33.0957 36.0007 34.2707 34.8583C32.9978 33.618 31.9455 32.2061 31.1138 30.6224C30.2809 29.0401 29.7339 27.3187 29.4728 25.4583H25.4582V39.0687ZM23.4998 43.0833C20.7908 43.0833 18.245 42.5689 15.8623 41.5401C13.4797 40.5127 11.4071 39.1177 9.64463 37.3552C7.88213 35.5927 6.48714 33.5201 5.45967 31.1375C4.43089 28.7548 3.9165 26.209 3.9165 23.5C3.9165 20.7909 4.43089 18.2451 5.45967 15.8625C6.48714 13.4798 7.88213 11.4073 9.64463 9.64475C11.4071 7.88225 13.4797 6.48661 15.8623 5.45783C18.245 4.43036 20.7908 3.91663 23.4998 3.91663C26.2089 3.91663 28.7547 4.43036 31.1373 5.45783C33.52 6.48661 35.5925 7.88225 37.355 9.64475C39.1175 11.4073 40.5125 13.4798 41.54 15.8625C42.5688 18.2451 43.0832 20.7909 43.0832 23.5C43.0832 26.209 42.5688 28.7548 41.54 31.1375C40.5125 33.5201 39.1175 35.5927 37.355 37.3552C35.5925 39.1177 33.52 40.5127 31.1373 41.5401C28.7547 42.5689 26.2089 43.0833 23.4998 43.0833Z" fill="white"/>
</g>
</svg>
