<svg width="47" height="47" viewBox="0 0 47 47" fill="none" xmlns="http://www.w3.org/2000/svg">
<mask id="mask0_14_14" style="mask-type:alpha" maskUnits="userSpaceOnUse" x="0" y="0" width="47" height="47">
<rect width="47" height="47" fill="white"/>
</mask>
<g mask="url(#mask0_14_14)">
<path d="M38.2853 18.5062C37.2734 15.6666 35.6252 13.2918 33.3405 11.3818C31.0557 9.47307 28.4283 8.32288 25.4582 7.93121V11.0645L38.2853 18.5062ZM15.6665 25.752L21.5415 22.325V7.93121C20.4971 8.02913 19.4853 8.26543 18.5061 8.64013C17.5269 9.01613 16.5804 9.46524 15.6665 9.98746V25.752ZM9.10609 29.5708L11.7498 28.0041V13.2187C10.4769 14.6548 9.50624 16.2541 8.8378 18.0166C8.16805 19.7791 7.83317 21.6069 7.83317 23.5C7.83317 24.5444 7.93892 25.5804 8.15042 26.6078C8.36323 27.6366 8.68178 28.6243 9.10609 29.5708ZM15.6665 37.0125L29.3748 29.1791L23.4998 25.752L11.0644 32.9979C11.7172 33.8138 12.4189 34.5645 13.1696 35.25C13.9203 35.9354 14.7526 36.5229 15.6665 37.0125ZM23.4998 39.1666C25.9478 39.1666 28.2651 38.6118 30.4519 37.502C32.6387 36.3923 34.4665 34.8583 35.9353 32.9L33.2915 31.4312L20.3665 38.8729C20.8887 38.9708 21.4109 39.0439 21.9332 39.0922C22.4554 39.1418 22.9776 39.1666 23.4998 39.1666ZM37.8936 29.5708C38.3179 28.6243 38.6358 27.6366 38.8473 26.6078C39.0601 25.5804 39.1665 24.5444 39.1665 23.5L25.4582 15.5687V22.325L37.8936 29.5708ZM23.4998 43.0833C20.7908 43.0833 18.245 42.5689 15.8623 41.5401C13.4797 40.5127 11.4071 39.1177 9.64463 37.3552C7.88213 35.5927 6.48714 33.5201 5.45967 31.1375C4.43089 28.7548 3.9165 26.209 3.9165 23.5C3.9165 20.7909 4.43089 18.2451 5.45967 15.8625C6.48714 13.4798 7.88213 11.4073 9.64463 9.64475C11.4071 7.88225 13.4797 6.48661 15.8623 5.45783C18.245 4.43036 20.7908 3.91663 23.4998 3.91663C26.2089 3.91663 28.7547 4.43036 31.1373 5.45783C33.52 6.48661 35.5925 7.88225 37.355 9.64475C39.1175 11.4073 40.5125 13.4798 41.54 15.8625C42.5688 18.2451 43.0832 20.7909 43.0832 23.5C43.0832 26.209 42.5688 28.7548 41.54 31.1375C40.5125 33.5201 39.1175 35.5927 37.355 37.3552C35.5925 39.1177 33.52 40.5127 31.1373 41.5401C28.7547 42.5689 26.2089 43.0833 23.4998 43.0833Z" fill="white"/>
</g>
</svg>
