<svg width="47" height="47" viewBox="0 0 47 47" fill="none" xmlns="http://www.w3.org/2000/svg">
<mask id="mask0_14_5" style="mask-type:alpha" maskUnits="userSpaceOnUse" x="0" y="0" width="47" height="47">
<rect width="47" height="47" fill="white"/>
</mask>
<g mask="url(#mask0_14_5)">
<path d="M29.3748 27.8083L23.8915 33.2916C23.4998 33.6833 23.0429 33.8791 22.5207 33.8791C21.9984 33.8791 21.5415 33.6833 21.1498 33.2916L4.504 16.6458C4.11234 16.2541 3.9165 15.8135 3.9165 15.3239C3.9165 14.8343 4.11234 14.3937 4.504 14.002L9.98734 8.51871C10.379 8.12704 10.8523 7.93121 11.4071 7.93121C11.962 7.93121 12.4353 8.12704 12.8269 8.51871L29.3748 25.0666C29.7665 25.4583 29.9623 25.9152 29.9623 26.4375C29.9623 26.9597 29.7665 27.4166 29.3748 27.8083ZM22.5207 29.1791L25.2623 26.4375L11.3582 12.5333L8.6165 15.275L22.5207 29.1791ZM36.4248 43.0833L28.1019 34.7604L30.8436 32.0187L39.1665 40.3416L36.4248 43.0833ZM36.229 17.625C34.3359 17.625 32.7203 16.9559 31.3821 15.6177C30.0439 14.2795 29.3748 12.6638 29.3748 10.7708C29.3748 8.87774 30.0439 7.26211 31.3821 5.92392C32.7203 4.58572 34.3359 3.91663 36.229 3.91663C38.1221 3.91663 39.7377 4.58572 41.0759 5.92392C42.4141 7.26211 43.0832 8.87774 43.0832 10.7708C43.0832 12.6638 42.4141 14.2795 41.0759 15.6177C39.7377 16.9559 38.1221 17.625 36.229 17.625ZM36.229 13.7083C37.045 13.7083 37.7382 13.4224 38.3088 12.8505C38.8806 12.28 39.1665 11.5868 39.1665 10.7708C39.1665 9.95482 38.8806 9.26157 38.3088 8.69104C37.7382 8.11921 37.045 7.83329 36.229 7.83329C35.413 7.83329 34.7198 8.11921 34.1493 8.69104C33.5774 9.26157 33.2915 9.95482 33.2915 10.7708C33.2915 11.5868 33.5774 12.28 34.1493 12.8505C34.7198 13.4224 35.413 13.7083 36.229 13.7083Z" fill="white"/>
</g>
</svg>
