<svg width="47" height="47" viewBox="0 0 47 47" fill="none" xmlns="http://www.w3.org/2000/svg">
<mask id="mask0_14_8" style="mask-type:alpha" maskUnits="userSpaceOnUse" x="0" y="0" width="47" height="47">
<rect width="47" height="47" fill="white"/>
</mask>
<g mask="url(#mask0_14_8)">
<path d="M23.4998 43.0833C20.7908 43.0833 18.245 42.5689 15.8623 41.5401C13.4797 40.5127 11.4071 39.1177 9.64463 37.3552C7.88213 35.5927 6.48714 33.5201 5.45967 31.1375C4.43089 28.7548 3.9165 26.209 3.9165 23.5C3.9165 20.7909 4.43089 18.2451 5.45967 15.8625C6.48714 13.4798 7.88213 11.4073 9.64463 9.64475C11.4071 7.88225 13.4797 6.48661 15.8623 5.45783C18.245 4.43036 20.7908 3.91663 23.4998 3.91663C26.2089 3.91663 28.7547 4.43036 31.1373 5.45783C33.52 6.48661 35.5925 7.88225 37.355 9.64475C39.1175 11.4073 40.5125 13.4798 41.54 15.8625C42.5688 18.2451 43.0832 20.7909 43.0832 23.5C43.0832 26.209 42.5688 28.7548 41.54 31.1375C40.5125 33.5201 39.1175 35.5927 37.355 37.3552C35.5925 39.1177 33.52 40.5127 31.1373 41.5401C28.7547 42.5689 26.2089 43.0833 23.4998 43.0833ZM33.2915 18.6041L35.9353 17.7229L36.7186 15.0791C35.6741 13.5125 34.4175 12.1658 32.9488 11.0391C31.48 9.9137 29.8644 9.07357 28.1019 8.51871L25.4582 10.3791V13.1208L33.2915 18.6041ZM13.7082 18.6041L21.5415 13.1208V10.3791L18.8978 8.51871C17.1353 9.07357 15.5196 9.9137 14.0509 11.0391C12.5821 12.1658 11.3255 13.5125 10.2811 15.0791L11.0644 17.7229L13.7082 18.6041ZM11.6519 33.6833L13.904 33.4875L15.3728 30.8437L12.5332 22.325L9.7915 21.3458L7.83317 22.8145C7.83317 24.9361 8.12692 26.8696 8.71442 28.6151C9.30192 30.362 10.2811 32.0514 11.6519 33.6833ZM23.4998 39.1666C24.3484 39.1666 25.1807 39.1013 25.9967 38.9708C26.8127 38.8402 27.6123 38.6444 28.3957 38.3833L29.7665 35.4458L28.4936 33.2916H18.5061L17.2332 35.4458L18.604 38.3833C19.3873 38.6444 20.187 38.8402 21.003 38.9708C21.8189 39.1013 22.6512 39.1666 23.4998 39.1666ZM19.0936 29.375H27.9061L30.6478 21.5416L23.4998 16.5479L16.4498 21.5416L19.0936 29.375ZM35.3478 33.6833C36.7186 32.0514 37.6978 30.362 38.2853 28.6151C38.8728 26.8696 39.1665 24.9361 39.1665 22.8145L37.2082 21.4437L34.4665 22.325L31.6269 30.8437L33.0957 33.4875L35.3478 33.6833Z" fill="white"/>
</g>
</svg>
