<svg width="47" height="42" viewBox="0 0 47 42" fill="none" xmlns="http://www.w3.org/2000/svg">
<path fill-rule="evenodd" clip-rule="evenodd" d="M36.5556 5.25H45.0417C46.1269 5.25 47 6.12773 47 7.21875V11.8125C47 14.741 45.1559 17.7516 41.9491 20.073C39.387 21.9352 36.2618 23.1164 32.9734 23.4937C30.4113 27.7676 27.4167 29.5312 27.4167 29.5312V35.4375H31.3333C34.2137 35.4375 36.5556 37.1355 36.5556 40.0312V41.0156C36.5556 41.557 36.1149 42 35.5764 42H11.4236C10.8851 42 10.4444 41.557 10.4444 41.0156V40.0312C10.4444 37.1355 12.7863 35.4375 15.6667 35.4375H19.5833V29.5312C19.5833 29.5312 16.5887 27.7676 14.0266 23.4937C10.7464 23.1164 7.62118 21.9352 5.05087 20.073C1.83594 17.7516 0 14.741 0 11.8125V7.21875C0 6.12773 0.87309 5.25 1.95833 5.25H10.4444V1.96875C10.4444 0.877734 11.3175 0 12.4028 0H34.5972C35.6825 0 36.5556 0.877734 36.5556 1.96875V5.25ZM5.22222 11.8125C5.22222 12.7641 6.11163 14.3719 8.1026 15.8156C9.12257 16.5539 10.2731 17.1445 11.5052 17.5711C10.934 15.5203 10.5424 13.1742 10.4608 10.5H5.22222V11.8125ZM38.8974 15.8156C40.3335 14.7738 41.7778 13.1332 41.7778 11.8125V10.5H36.5311C36.4495 13.1742 36.0578 15.5203 35.4866 17.5711C36.7188 17.1445 37.8774 16.5539 38.8974 15.8156ZM25.2451 10.9098L23 4L20.7549 10.9098H13.4894L19.3673 15.1803L17.1221 22.0902L23 17.8197L28.8779 22.0902L26.6327 15.1803L32.5106 10.9098H25.2451Z" fill="white"/>
</svg>
