<svg width="47" height="47" viewBox="0 0 47 47" fill="none" xmlns="http://www.w3.org/2000/svg">
<mask id="mask0_14_17" style="mask-type:alpha" maskUnits="userSpaceOnUse" x="0" y="0" width="47" height="47">
<rect width="47" height="47" fill="white"/>
</mask>
<g mask="url(#mask0_14_17)">
<path d="M6.70713 39.1666L3.9165 36.425L11.9457 28.3958C12.9575 27.384 13.6507 26.1189 14.0254 24.6006C14.4014 23.0835 14.5894 20.7583 14.5894 17.625C14.5894 15.7319 15.0137 13.8715 15.8623 12.0437C16.7109 10.216 17.9186 8.51873 19.4853 6.95207C22.4554 3.98193 25.7356 2.30102 29.3259 1.90936C32.9162 1.51769 35.87 2.51318 38.1873 4.89582C40.5373 7.24582 41.5165 10.216 41.1248 13.8062C40.7332 17.3965 39.0686 20.6604 36.1311 23.5979C34.5644 25.1646 32.8672 26.3722 31.0394 27.2208C29.2116 28.0694 27.3512 28.4937 25.4582 28.4937C22.2922 28.4937 19.9748 28.6732 18.5061 29.0323C17.0373 29.3913 15.7807 30.093 14.7363 31.1375L6.70713 39.1666ZM20.1707 22.8146C21.7047 24.316 23.7773 24.8708 26.3884 24.4791C28.9995 24.0875 31.3332 22.8635 33.3894 20.8073C35.4783 18.7184 36.7271 16.3762 37.1357 13.7808C37.543 11.1866 36.9797 9.15519 35.4457 7.68644C33.879 6.11977 31.8312 5.53227 29.3024 5.92394C26.7722 6.31561 24.4464 7.55589 22.3248 9.64477C20.2686 11.701 19.0205 14.0269 18.5805 16.6223C18.1392 19.2165 18.6693 21.2805 20.1707 22.8146ZM35.2498 45.0416C33.0957 45.0416 31.2516 44.2746 29.7175 42.7406C28.1835 41.2066 27.4165 39.3625 27.4165 37.2083C27.4165 35.0541 28.1835 33.2101 29.7175 31.676C31.2516 30.142 33.0957 29.375 35.2498 29.375C37.404 29.375 39.2481 30.142 40.7821 31.676C42.3162 33.2101 43.0832 35.0541 43.0832 37.2083C43.0832 39.3625 42.3162 41.2066 40.7821 42.7406C39.2481 44.2746 37.404 45.0416 35.2498 45.0416ZM35.2498 41.125C36.3269 41.125 37.2493 40.7418 38.017 39.9754C38.7833 39.2078 39.1665 38.2854 39.1665 37.2083C39.1665 36.1312 38.7833 35.2089 38.017 34.4412C37.2493 33.6748 36.3269 33.2916 35.2498 33.2916C34.1728 33.2916 33.2504 33.6748 32.4827 34.4412C31.7164 35.2089 31.3332 36.1312 31.3332 37.2083C31.3332 38.2854 31.7164 39.2078 32.4827 39.9754C33.2504 40.7418 34.1728 41.125 35.2498 41.125Z" fill="white"/>
</g>
</svg>
